<?xml version="1.0" encoding="UTF-8" ?>
<!DOCTYPE svg PUBLIC "-//W3C//DTD SVG 1.1//EN" "http://www.w3.org/Graphics/SVG/1.1/DTD/svg11.dtd">
<svg xmlns="http://www.w3.org/2000/svg" xmlns:xlink="http://www.w3.org/1999/xlink">
    
    <symbol id="share">
        <g clip-path="url(#clip0_201_2)">
            <path fill-rule="evenodd" clip-rule="evenodd" d="M100 15C100 23.2843 93.2843 30 85 30C81.0858 30 77.5217 28.5007 74.8507 26.0451L29.8908 48.1806C29.9629 48.777 30 49.3841 30 50C30 50.9831 29.9054 51.9441 29.7249 52.8745L74.1248 74.6689C76.8577 71.793 80.7195 70 85 70C93.2843 70 100 76.7157 100 85C100 93.2843 93.2843 100 85 100C76.7157 100 70 93.2843 70 85C70 84.5984 70.0158 84.2005 70.0468 83.8069L24.6207 61.5088C22.0165 63.6881 18.6614 65 15 65C6.71573 65 0 58.2843 0 50C0 41.7157 6.71573 35 15 35C19.0567 35 22.7373 36.6104 25.4374 39.2268L70.1613 17.2076C70.055 16.4871 70 15.75 70 15C70 6.71573 76.7157 0 85 0C93.2843 0 100 6.71573 100 15ZM92 15.5C92 19.6421 88.6421 23 84.5 23C80.3579 23 77 19.6421 77 15.5C77 11.3579 80.3579 8 84.5 8C88.6421 8 92 11.3579 92 15.5ZM14.5 58C18.6421 58 22 54.6421 22 50.5C22 46.3579 18.6421 43 14.5 43C10.3579 43 7 46.3579 7 50.5C7 54.6421 10.3579 58 14.5 58ZM92 85.5C92 89.6421 88.6421 93 84.5 93C80.3579 93 77 89.6421 77 85.5C77 81.3579 80.3579 78 84.5 78C88.6421 78 92 81.3579 92 85.5Z" fill="currentColor"/>
        </g>
    </symbol>

    <symbol id="share">
        <path d="M402 168c-2.93 40.67-33.1 72-66 72s-63.12-31.32-66-72c-3-42.31 26.37-72 66-72s69 30.46 66 72z" fill="none" stroke="currentColor" stroke-linecap="round" stroke-linejoin="round" stroke-width="32"/>
        <path d="M336 304c-65.17 0-127.84 32.37-143.54 95.41-2.08 8.34 3.15 16.59 11.72 16.59h263.65c8.57 0 13.77-8.25 11.72-16.59C463.85 335.36 401.18 304 336 304z" fill="none" stroke="currentColor" stroke-miterlimit="10" stroke-width="32"/>
        <path d="M200 185.94c-2.34 32.48-26.72 58.06-53 58.06s-50.7-25.57-53-58.06C91.61 152.15 115.34 128 147 128s55.39 24.77 53 57.94z" fill="none" stroke="currentColor" stroke-linecap="round" stroke-linejoin="round" stroke-width="32"/>
        <path d="M206 306c-18.05-8.27-37.93-11.45-59-11.45-52 0-102.1 25.85-114.65 76.2-1.65 6.66 2.53 13.25 9.37 13.25H154" fill="none" stroke="currentColor" stroke-linecap="round" stroke-miterlimit="10" stroke-width="32"/>
    </symbol>

    <symbol id="settings">
        <path fill="transparent" d="M41.5 97H60C60 84 69.5 81 79.5 88L89 78.5C80.5 70.5 82.5 61 99 59V41.5C83 41.5 82 29 89.5 21.5L80 12C69 17.5 59 16 59 3L40.5 3C40.5 16 31 19 21 12L11.5 21.5C21 29 17 43.5 1.99999 41.5V59C15.5 61 20.5 68 11 78.5L20.5 88C31.5 82.5 41.5 84 41.5 97Z" stroke="currentColor" stroke-width="5"/>
        <circle cx="50" cy="50" r="12.5" stroke="currentColor" fill='' stroke-width="5"/>
    </symbol>

    <symbol id="home">
        <path d="M28.44 18.2013L29.8529 20.2637L30.94 19.519V18.2013H28.44ZM17.464 25.7208H14.964V30.4639L18.8769 27.7832L17.464 25.7208ZM28.44 3H30.94V0.5H28.44V3ZM17.464 3V0.5H14.964V3H17.464ZM47.1743 14.9582L46.0079 12.7469L45.8856 12.8115L45.7711 12.8891L47.1743 14.9582ZM7.61468 41.7871L6.21147 39.718L5.15245 40.4362L5.11571 41.7153L7.61468 41.7871ZM52.8257 14.9582L54.1905 12.8636L54.094 12.8007L53.9921 12.7469L52.8257 14.9582ZM94 41.7871H96.5V40.4322L95.3648 39.6925L94 41.7871ZM94 98V100.5H96.5V98H94ZM64.9358 98H62.4358V100.5H64.9358V98ZM64.9358 53.0999H67.4358V50.5999H64.9358V53.0999ZM35.8716 53.0999V50.5999H33.3716V53.0999H35.8716ZM35.8716 98V100.5H38.3716V98H35.8716ZM6 98L3.50103 97.9282L3.42716 100.5H6V98ZM47.256 5.31069L46.0322 3.13072L45.935 3.18527L45.8431 3.24826L47.256 5.31069ZM53.528 5.31069L54.9574 3.25962L54.8577 3.19018L54.7518 3.13072L53.528 5.31069ZM27.0271 16.1388L16.0511 23.6583L18.8769 27.7832L29.8529 20.2637L27.0271 16.1388ZM25.94 3V18.2013H30.94V3H25.94ZM17.464 5.5H28.44V0.5H17.464V5.5ZM19.964 25.7208V3H14.964V25.7208H19.964ZM45.7711 12.8891L6.21147 39.718L9.01789 43.8561L48.5775 17.0272L45.7711 12.8891ZM53.9921 12.7469C52.7668 12.1007 51.478 11.5 50 11.5C48.522 11.5 47.2332 12.1007 46.0079 12.7469L48.3407 17.1694C49.5375 16.5381 49.8633 16.5 50 16.5C50.1367 16.5 50.4625 16.5381 51.6593 17.1694L53.9921 12.7469ZM95.3648 39.6925L54.1905 12.8636L51.4609 17.0528L92.6352 43.8817L95.3648 39.6925ZM96.5 98V41.7871H91.5V98H96.5ZM64.9358 100.5H94V95.5H64.9358V100.5ZM62.4358 53.0999V98H67.4358V53.0999H62.4358ZM35.8716 55.5999H64.9358V50.5999H35.8716V55.5999ZM38.3716 98V53.0999H33.3716V98H38.3716ZM6 100.5H35.8716V95.5H6V100.5ZM5.11571 41.7153L3.50103 97.9282L8.49897 98.0718L10.1136 41.8589L5.11571 41.7153ZM48.4798 7.49066C49.4633 6.93852 50.0092 6.82039 50.392 6.82039C50.7748 6.82039 51.3207 6.93852 52.3042 7.49066L54.7518 3.13072C53.3833 2.36245 51.9692 1.82039 50.392 1.82039C48.8148 1.82039 47.4007 2.36245 46.0322 3.13072L48.4798 7.49066ZM52.0986 7.36175L97.5706 39.0511L100.429 34.9489L54.9574 3.25962L52.0986 7.36175ZM2.41294 39.0624L18.8769 27.7832L16.0511 23.6583L-0.412939 34.9376L2.41294 39.0624ZM29.8529 20.2637L48.6689 7.37311L45.8431 3.24826L27.0271 16.1388L29.8529 20.2637Z" fill="currentColor"/>
    </symbol>

    <symbol id="close">
        <path fill-rule="evenodd" clip-rule="evenodd" d="M93.4438 6.07187C91.4911 4.11927 88.3253 4.11927 86.3726 6.07187L49.952 42.4918L13.5314 6.07188C11.5788 4.11928 8.41293 4.11928 6.46029 6.07188L5.07012 7.46202C3.11748 9.41463 3.11748 12.5804 5.07012 14.533L41.4907 50.9529L5.07012 87.3728C3.11748 89.3254 3.11748 92.4912 5.07012 94.4438L6.46029 95.834C8.41293 97.7866 11.5788 97.7866 13.5314 95.834L49.952 59.4141L86.3726 95.834C88.3253 97.7866 91.4911 97.7866 93.4438 95.834L94.834 94.4438C96.7866 92.4912 96.7866 89.3254 94.8339 87.3728L58.4133 50.9529L94.834 14.533C96.7866 12.5804 96.7866 9.41462 94.8339 7.46202L93.4438 6.07187Z" fill="currentColor"/>
    </symbol>

    <symbol id="warning">
       <path fill-rule="evenodd" clip-rule="evenodd" d="M58.6602 15C54.8112 8.33333 45.1887 8.33333 41.3397 15L6.69872 75C2.84972 81.6667 7.66097 90 15.359 90H84.641C92.339 90 97.1503 81.6667 93.3013 75L58.6602 15ZM45.2 29.5C45.2 27.0147 47.2147 25 49.7 25C52.1853 25 54.2 27.0147 54.2 29.5V56.8375C54.2 59.3228 52.1853 61.3375 49.7 61.3375C47.2147 61.3375 45.2 59.3228 45.2 56.8375V29.5ZM56 69.625C56 73.1458 53.3137 76 50 76C46.6863 76 44 73.1458 44 69.625C44 66.1042 46.6863 63.25 50 63.25C53.3137 63.25 56 66.1042 56 69.625Z" fill="currentColor"/>
    </symbol>

    <symbol id="users">
        <path fill-rule="evenodd" clip-rule="evenodd" d="M23.3596 44.1871C26.7894 44.1871 29.9155 42.6594 32.2714 40.1518C32.2568 39.8246 32.2494 39.4952 32.2494 39.1638C32.2494 34.2796 33.8564 29.8184 36.507 26.4146C35.6047 18.834 30.0622 13 23.3596 13C16.0275 13 10.0836 19.9815 10.0836 28.5936C10.0836 37.2056 16.0275 44.1871 23.3596 44.1871ZM23.5071 47.1399C26.9422 47.1399 30.1161 45.7927 32.6852 43.5129C32.883 44.4829 33.1456 45.425 33.4675 46.3332C26.1396 50.6311 21.3081 57.9922 21.3081 66.3514C21.3081 67.8568 21.4648 69.3297 21.7645 70.7583C10.7014 69.9819 2 61.8779 2 51.9952C2 46.116 5.07951 40.8663 9.90375 37.4143C12.5341 43.2096 17.6397 47.1399 23.5071 47.1399Z" fill="currentColor"/>
        <path fill-rule="evenodd" clip-rule="evenodd" d="M76.3453 44.1871C83.6774 44.1871 89.6213 37.2056 89.6213 28.5936C89.6213 19.9815 83.6774 13 76.3453 13C69.4865 13 63.8424 19.1093 63.1424 26.9477C65.5537 30.278 66.9997 34.5306 66.9997 39.1638C66.9997 39.3305 66.9978 39.4967 66.9941 39.6624C69.3936 42.4592 72.6977 44.1871 76.3453 44.1871ZM75.5447 70.8012C75.859 70.8131 76.1751 70.8192 76.4928 70.8192C88.3709 70.8192 97.9999 62.3914 97.9999 51.9952C97.9999 46.116 94.9204 40.8662 90.0962 37.4143C87.4658 43.2096 82.3602 47.1399 76.4928 47.1399C72.7676 47.1399 69.3495 45.5556 66.6769 42.9156C66.4082 44.4558 65.9772 45.9304 65.4048 47.3158C71.854 51.704 76.0101 58.5985 76.0101 66.3514C76.0101 67.8718 75.8503 69.3592 75.5447 70.8012Z" fill="currentColor"/>
        <path fill-rule="evenodd" clip-rule="evenodd" d="M49.2459 57.2325C57.5106 57.2325 64.2104 49.317 64.2104 39.5527C64.2104 29.7884 57.5106 21.873 49.2459 21.873C40.9813 21.873 34.2814 29.7884 34.2814 39.5527C34.2814 49.317 40.9813 57.2325 49.2459 57.2325ZM25.1697 66.0852C25.1697 59.4194 28.6409 53.4673 34.0787 49.5535C37.0436 56.1241 42.7986 60.5803 49.4122 60.5803C56.0258 60.5803 61.7808 56.1242 64.7456 49.5536C70.1834 53.4673 73.6546 59.4194 73.6546 66.0852C73.6546 77.8722 62.8009 87.4275 49.4122 87.4275C36.0234 87.4275 25.1697 77.8722 25.1697 66.0852Z" fill="currentColor"/>
    </symbol>
    
    <symbol id="bin">
        <path fill-rule="evenodd" clip-rule="evenodd" d="M65.0625 7.5C66.9095 7.5 68.0215 7.50614 68.7966 7.61748C69.0642 7.65592 69.2173 7.6976 69.2972 7.72567C69.3475 7.85172 69.4613 8.21453 69.535 9.07188C69.5938 9.75544 69.6185 10.5911 69.6289 11.6444H69.6227H69.566H69.5092H69.4524H69.3954H69.3384H69.2813H69.2242H69.1669H69.1096H69.0523H68.9949H68.9374H68.8798H68.8222H68.7645H68.7067H68.6489H68.591H68.5331H68.4751H68.4171H68.3589H68.3008H68.2425H68.1843H68.1259H68.0675H68.0091H67.9506H67.8921H67.8335H67.7748H67.7161H67.6574H67.5986H67.5398H67.4809H67.422H67.363H67.304H67.245H67.1859H67.1267H67.0676H67.0084H66.9491H66.8898H66.8305H66.7712H66.7118H66.6523H66.5929H66.5334H66.4739H66.4143H66.3548H66.2952H66.2355H66.1759H66.1162H66.0565H65.9968H65.937H65.8772H65.8174H65.7576H65.6978H65.6379H65.578H65.5182H65.4582H65.3983H65.3384H65.2784H65.2185H65.1585H65.0985H65.0385H64.9785H64.9185H64.8584H64.7984H64.7384H64.6783H64.6183H64.5582H64.4982H64.4381H64.3781H64.318H64.2579H64.1979H64.1378H64.0778H64.0177H63.9577H63.8976H63.8376H63.7776H63.7176H63.6576H63.5976H63.5376H63.4776H63.4177H63.3577H63.2978H63.2379H63.178H63.1181H63.0582H62.9984H62.9385H62.8787H62.8189H62.7591H62.6994H62.6397H62.58H62.5203H62.4607H62.401H62.3414H62.2819H62.2224H62.1628H62.1034H62.0439H61.9845H61.9251H61.8658H61.8065H61.7472H61.688H61.6288H61.5696H61.5105H61.4515H61.3924H61.3334H61.2745H61.2156H61.1567H61.0979H61.0391H60.9804H60.9217H60.8631H60.8045H60.746H60.6875H60.6291H60.5707H60.5124H60.4542H60.396H60.3378H60.2797H60.2217H60.1637H60.1058H60.0479H59.9901H59.9324H59.8747H59.8171H59.7596H59.7021H59.6447H59.5874H59.5301H59.4729H59.4158H59.3587H59.3018H59.2448H59.188H59.1312H59.0745H59.0179H58.9614H58.9049H58.8485H58.7922H58.736H58.6799H58.6238H58.5678H58.5119H58.4561H58.4004H58.3447H58.2892H58.2337H58.1784H58.1231H58.0679H58.0128H57.9578H57.9028H57.848H57.7933H57.7386H57.6841H57.6297H57.5753H57.5211H57.4669H57.4129H57.3589H57.3051H57.2513H57.1977H57.1442H57.0908H57.0374H56.9842H56.9311H56.8781H56.8252H56.7725H56.7198H56.6672H56.6148H56.5625H56.5103H56.4582H56.4062H56.3543H56.3026H56.251H56.1995H56.1481H56.0968H56.0457H55.9947H55.9438H55.893H55.8424H55.7919H55.7415H55.6912H55.6411H55.5911H55.5413H55.4915H55.4419H55.3924H55.3431H55.2939H55.2449H55.1959H55.1471H55.0985H55.05H55.0016H54.9534H54.9053H54.8574H54.8096H54.7619H54.7144H54.667H54.6198H54.5727H54.5258H54.479H54.4324H54.386H54.3396H54.2935H54.2475H54.2016H54.1559H54.1104H54.065H54.0198H53.9747H53.9298H53.885H53.8404H53.796H53.7518H53.7077H53.6637H53.6199H53.5763H53.5329H53.4896H53.4466H53.4036H53.3609H53.3183H53.2759H53.2336H53.1916H53.1497H53.108H53.0664H53.0251H52.9839H52.9429H52.9021H52.8614H52.821H52.7807H52.7406H52.7007H52.661H52.6214H52.5821H52.5429H52.5039H52.4651H52.4265H52.3881H52.3499H52.3119H52.2741H52.2365H52.199H52.1618H52.1247H52.0879H52.0512H52.0148H51.9785H51.9425H51.9067H51.871H51.8356H51.8003H51.7653H51.7305H51.6959H51.6615H51.6273H51.5933H51.5595H51.5259H51.4926H51.4594H51.4265H51.3938H51.3613H51.329H51.297H51.2651H51.2335H51.2021H51.1709H51.14H51.1092H51.0787H51.0484H51.0183H50.9885H50.9589H50.9295H50.9003H50.8714H50.8427H50.8142H50.786H50.758H50.7302H50.7027H50.6754H50.6483H50.6215H50.5949H50.5685H50.5424H50.5165H50.4909H50.4655H50.4404H50.4155H50.3908H50.3664H50.3422H50.3183H50.2946H50.2712H50.248H50.2251H50.2024H50.18H50.1578H50.1359H50.1142H50.0928H50.0717H50.0508H50.0301H50.0098H49.9896H49.9698H49.9502H49.9308H49.9118H49.893H49.8744H49.8561H49.8381H49.8204H49.8029H49.7857H49.7688H49.7521H49.7357H49.7196H49.7037H49.6882H49.6729H49.6578H49.6431H49.6286H49.6144H49.6005H49.5869H49.5735H49.5605H49.5477H49.5352H49.523H49.511H49.4994H49.488H49.4769H49.4661H49.4557H49.4454H49.4355H49.4259H49.4166H49.4075H49.3988H49.3903H49.3822H49.3743H49.3668H49.3595H49.3525H49.3459H49.3395H49.3335H49.3277H49.3223H49.3171H49.3123H49.3077H49.3035H49.2996H49.296H49.2927H49.2897H49.287H49.2846H49.2826H49.2808H49.2794H49.2783H49.2775H49.277C49.2769 11.6444 49.2769 11.6444 49.2769 14.1444C49.2769 11.6444 49.2768 11.6444 49.2767 11.6444H49.2762H49.2753H49.2741H49.2726H49.2707H49.2685H49.2659H49.263H49.2598H49.2562H49.2523H49.248H49.2434H49.2385H49.2333H49.2277H49.2218H49.2156H49.209H49.2021H49.1949H49.1873H49.1795H49.1713H49.1628H49.1539H49.1448H49.1353H49.1255H49.1154H49.105H49.0942H49.0832H49.0718H49.0601H49.0481H49.0358H49.0232H49.0102H48.997H48.9834H48.9696H48.9554H48.9409H48.9262H48.9111H48.8957H48.88H48.864H48.8478H48.8312H48.8143H48.7971H48.7797H48.7619H48.7438H48.7255H48.7068H48.6879H48.6687H48.6492H48.6294H48.6093H48.5889H48.5682H48.5473H48.526H48.5045H48.4827H48.4606H48.4383H48.4156H48.3927H48.3695H48.346H48.3223H48.2983H48.274H48.2494H48.2245H48.1994H48.174H48.1484H48.1225H48.0963H48.0698H48.0431H48.0161H47.9888H47.9613H47.9336H47.9055H47.8772H47.8487H47.8198H47.7908H47.7614H47.7318H47.702H47.6719H47.6416H47.611H47.5801H47.549H47.5177H47.4861H47.4542H47.4221H47.3898H47.3572H47.3244H47.2913H47.258H47.2244H47.1907H47.1566H47.1223H47.0878H47.0531H47.0181H46.9829H46.9475H46.9118H46.8759H46.8397H46.8034H46.7668H46.7299H46.6929H46.6556H46.6181H46.5803H46.5424H46.5042H46.4658H46.4272H46.3883H46.3493H46.31H46.2705H46.2308H46.1909H46.1507H46.1104H46.0698H46.029H45.988H45.9468H45.9054H45.8638H45.822H45.78H45.7377H45.6953H45.6526H45.6098H45.5667H45.5235H45.4801H45.4364H45.3926H45.3485H45.3043H45.2599H45.2152H45.1704H45.1254H45.0802H45.0348H44.9892H44.9435H44.8975H44.8513H44.805H44.7585H44.7118H44.6649H44.6178H44.5706H44.5232H44.4756H44.4278H44.3798H44.3317H44.2834H44.2349H44.1862H44.1374H44.0883H44.0392H43.9898H43.9403H43.8906H43.8407H43.7907H43.7405H43.6902H43.6397H43.589H43.5381H43.4871H43.436H43.3846H43.3331H43.2815H43.2297H43.1778H43.1256H43.0734H43.021H42.9684H42.9157H42.8628H42.8098H42.7566H42.7033H42.6499H42.5963H42.5425H42.4886H42.4346H42.3804H42.3261H42.2716H42.217H42.1623H42.1074H42.0524H41.9973H41.942H41.8866H41.831H41.7753H41.7195H41.6636H41.6075H41.5513H41.495H41.4386H41.382H41.3253H41.2685H41.2115H41.1544H41.0973H41.04H40.9825H40.925H40.8673H40.8095H40.7516H40.6936H40.6355H40.5773H40.5189H40.4605H40.4019H40.3432H40.2845H40.2256H40.1666H40.1075H40.0483H39.989H39.9295H39.87H39.8104H39.7507H39.6909H39.631H39.571H39.5109H39.4507H39.3904H39.33H39.2695H39.2089H39.1483H39.0875H39.0267H38.9658H38.9048H38.8437H38.7825H38.7212H38.6599H38.5984H38.5369H38.4753H38.4136H38.3519H38.2901H38.2281H38.1662H38.1041H38.042H37.9798H37.9175H37.8551H37.7927H37.7302H37.6677H37.605H37.5424H37.4796H37.4168H37.3539H37.2909H37.2279H37.1649H37.1017H37.0385H36.9753H36.912H36.8486H36.7852H36.7217H36.6582H36.5946H36.531H36.4673H36.4036H36.3398H36.2759H36.2121H36.1481H36.0842H36.0201H35.9561H35.892H35.8278H35.7636H35.6994H35.6352H35.5709H35.5065H35.4421H35.3777H35.3133H35.2488H35.1843H35.1197H35.0552H34.9906H34.9259H34.8613H34.7966H34.7318H34.6671H34.6023H34.5375H34.4727H34.4079H34.343H34.2782H34.2133H34.1484H34.0834H34.0185H33.9535H33.8885H33.8236H33.7586H33.6935H33.6285H33.5635H33.4984H33.4334H33.3683H33.3033H33.2382H33.1731H33.108H33.043H32.9779H32.9128H32.8477H32.7826H32.7176H32.6525H32.5874H32.5224H32.4573H32.3922H32.3272H32.2622H32.1971H32.1321H32.0671H32.0021H31.9371H31.8722H31.8072H31.7423H31.6774H31.6125H31.5476H31.4827H31.4179H31.3531H31.2883H31.2235H31.1587H31.094H31.0293H30.9646H30.9H30.8354H30.7708H30.7062H30.6417H30.5772H30.5127H30.4483H30.3839H30.3196H30.2553H30.191H30.1267H30.0625H29.9984H29.9343H29.8702H29.8062H29.7422H29.6782H29.6143H29.5505H29.4867H29.4229H29.3592H29.2956H29.232H29.1684H29.1049H29.0415H28.9781H28.9148H28.8515H28.7883H28.7251H28.662H28.599H28.536H28.4731H28.4103H28.3475H28.2848H28.2221H28.1595H28.097H28.0346H27.9722H27.9099H27.8477H27.7855H27.7234H27.6614H27.5995H27.5376H27.4759H27.4141H27.3525H27.291H27.2295H27.1681H27.1068H27.0456H27.0142C27.0259 10.5975 27.0536 9.77287 27.1192 9.10017C27.2053 8.21592 27.3372 7.89443 27.3798 7.80937C27.4603 7.77088 27.6862 7.68843 28.2022 7.62304C29.1351 7.5048 30.449 7.5 32.5227 7.5H65.0625ZM74.6364 14.1444V14.0258C74.6364 11.8406 74.6364 10.0373 74.5166 8.64369C74.3999 7.28558 74.1425 5.79358 73.2295 4.61338C72.2109 3.29661 70.7811 2.85121 69.5075 2.66827C68.3332 2.49961 66.8539 2.49979 65.2294 2.49998L65.0625 2.5H32.5227L32.3652 2.49999C30.496 2.49986 28.8594 2.49975 27.5735 2.66272C26.235 2.83236 24.7335 3.234 23.628 4.49495C22.5831 5.68673 22.2783 7.22329 22.1427 8.6154C22.0056 10.0233 22.0056 11.8388 22.0057 14.0129L22.0057 14.1444L12.9086 14.1444C10.1912 14.1444 8.97812 14.1444 8.43662 14.7474C8 15.2336 8 16.1119 8 17.6985V24.3624H91V17.6985C91 16.1627 91 15.2906 90.568 14.7953C90.0002 14.1444 88.6861 14.1444 85.6452 14.1444L74.6364 14.1444ZM69.3712 7.7588C69.3703 7.75918 69.362 7.75536 69.349 7.74619C69.3656 7.75384 69.3721 7.75842 69.3712 7.7588ZM27.3425 7.83101C27.342 7.83077 27.3463 7.82719 27.3573 7.82097C27.3486 7.82814 27.3431 7.83124 27.3425 7.83101Z" fill="currentColor"/>
        <path fill-rule="evenodd" clip-rule="evenodd" d="M12 29L27.1307 99.5294H68.3963L86.7366 29H12ZM72.7022 32.6506C69.8977 32.1853 67.2999 34.0898 66.8999 36.9043L60.083 84.8701C59.683 87.6846 61.6322 90.3435 64.4367 90.8088C67.2412 91.2741 69.8389 89.3696 70.2389 86.5551L77.0558 38.5893C77.4558 35.7748 75.5066 33.1159 72.7022 32.6506ZM25.3918 32.651C22.5873 33.1165 20.6383 35.7754 21.0384 38.5899L27.858 86.5553C28.2581 89.3698 30.856 91.2741 33.6605 90.8086C36.4649 90.3431 38.414 87.6841 38.0138 84.8696L31.1943 36.9043C30.7941 34.0897 28.1963 32.1855 25.3918 32.651ZM43.9463 38.0558C43.9463 35.2184 46.2464 32.9183 49.0838 32.9183C51.9211 32.9183 54.2213 35.2184 54.2213 38.0558V85.5105C54.2213 88.3478 51.9211 90.6479 49.0838 90.6479C46.2464 90.6479 43.9463 88.3478 43.9463 85.5105V38.0558Z" fill="currentColor"/>
        <path d="M27.1307 99.5294L24.6863 100.054L25.1102 102.029H27.1307V99.5294ZM12 29V26.5H8.90679L9.55562 29.5244L12 29ZM68.3963 99.5294V102.029H70.3293L70.8158 100.159L68.3963 99.5294ZM86.7366 29L89.1561 29.6292L89.9698 26.5H86.7366V29ZM66.8999 36.9043L64.4248 36.5525V36.5525L66.8999 36.9043ZM72.7022 32.6506L72.293 35.1169V35.1169L72.7022 32.6506ZM60.083 84.8701L62.5581 85.2218V85.2218L60.083 84.8701ZM64.4367 90.8088L64.8459 88.3425L64.4367 90.8088ZM70.2389 86.5551L67.7638 86.2033L70.2389 86.5551ZM77.0558 38.5893L79.531 38.9411V38.9411L77.0558 38.5893ZM21.0384 38.5899L18.5633 38.9418L21.0384 38.5899ZM25.3918 32.651L25.8012 35.1172L25.3918 32.651ZM27.858 86.5553L30.3331 86.2034L27.858 86.5553ZM33.6605 90.8086L33.2511 88.3423H33.2511L33.6605 90.8086ZM38.0138 84.8696L40.4889 84.5177L38.0138 84.8696ZM31.1943 36.9043L28.7192 37.2562V37.2562L31.1943 36.9043ZM29.5751 99.005L14.4444 28.4756L9.55562 29.5244L24.6863 100.054L29.5751 99.005ZM68.3963 97.0294H27.1307V102.029H68.3963V97.0294ZM84.317 28.3708L65.9768 98.9002L70.8158 100.159L89.1561 29.6292L84.317 28.3708ZM12 31.5H86.7366V26.5H12V31.5ZM69.375 37.2561C69.5776 35.831 70.873 34.8813 72.293 35.1169L73.1113 30.1843C68.9223 29.4893 65.0223 32.3485 64.4248 36.5525L69.375 37.2561ZM62.5581 85.2218L69.375 37.2561L64.4248 36.5525L57.6079 84.5183L62.5581 85.2218ZM64.8459 88.3425C63.3812 88.0995 62.3492 86.6918 62.5581 85.2218L57.6079 84.5183C57.0168 88.6774 59.8833 92.5875 64.0275 93.275L64.8459 88.3425ZM67.7638 86.2033C67.5613 87.6284 66.2659 88.5781 64.8459 88.3425L64.0275 93.275C68.2165 93.9701 72.1166 91.1109 72.7141 86.9069L67.7638 86.2033ZM74.5807 38.2375L67.7638 86.2033L72.7141 86.9069L79.531 38.9411L74.5807 38.2375ZM72.293 35.1169C73.7577 35.3599 74.7896 36.7676 74.5807 38.2376L79.531 38.9411C80.1221 34.782 77.2556 30.8719 73.1113 30.1843L72.293 35.1169ZM23.5135 38.238C23.3045 36.7681 24.3364 35.3603 25.8012 35.1172L24.9824 30.1847C20.8383 30.8726 17.972 34.7828 18.5633 38.9418L23.5135 38.238ZM30.3331 86.2034L23.5135 38.238L18.5633 38.9418L25.3829 86.9072L30.3331 86.2034ZM33.2511 88.3423C31.8312 88.578 30.5357 87.6284 30.3331 86.2034L25.3829 86.9072C25.9806 91.1112 29.8808 93.9701 34.0698 93.2748L33.2511 88.3423ZM35.5387 85.2215C35.7477 86.6915 34.7158 88.0992 33.2511 88.3423L34.0698 93.2748C38.214 92.587 41.0802 88.6768 40.4889 84.5177L35.5387 85.2215ZM28.7192 37.2562L35.5387 85.2215L40.4889 84.5177L33.6694 36.5524L28.7192 37.2562ZM25.8012 35.1172C27.2211 34.8815 28.5166 35.8311 28.7192 37.2562L33.6694 36.5524C33.0717 32.3483 29.1714 29.4894 24.9824 30.1847L25.8012 35.1172ZM49.0838 30.4183C44.8657 30.4183 41.4463 33.8377 41.4463 38.0558H46.4463C46.4463 36.5991 47.6271 35.4183 49.0838 35.4183V30.4183ZM56.7213 38.0558C56.7213 33.8377 53.3019 30.4183 49.0838 30.4183V35.4183C50.5404 35.4183 51.7213 36.5991 51.7213 38.0558H56.7213ZM56.7213 85.5105V38.0558H51.7213V85.5105H56.7213ZM49.0838 93.1479C53.3019 93.1479 56.7213 89.7285 56.7213 85.5105H51.7213C51.7213 86.9671 50.5404 88.1479 49.0838 88.1479V93.1479ZM41.4463 85.5105C41.4463 89.7285 44.8657 93.1479 49.0838 93.1479V88.1479C47.6271 88.1479 46.4463 86.9671 46.4463 85.5105H41.4463ZM41.4463 38.0558V85.5105H46.4463V38.0558H41.4463Z" fill="currentColor"/>
    </symbol>
</svg>
