<?xml version="1.0" encoding="UTF-8" ?>
<!DOCTYPE svg PUBLIC "-//W3C//DTD SVG 1.1//EN" "http://www.w3.org/Graphics/SVG/1.1/DTD/svg11.dtd">
<svg xmlns="http://www.w3.org/2000/svg" xmlns:xlink="http://www.w3.org/1999/xlink">
    
    <symbol id="share">
        <g clip-path="url(#clip0_201_2)">
            <path fill-rule="evenodd" clip-rule="evenodd" d="M100 15C100 23.2843 93.2843 30 85 30C81.0858 30 77.5217 28.5007 74.8507 26.0451L29.8908 48.1806C29.9629 48.777 30 49.3841 30 50C30 50.9831 29.9054 51.9441 29.7249 52.8745L74.1248 74.6689C76.8577 71.793 80.7195 70 85 70C93.2843 70 100 76.7157 100 85C100 93.2843 93.2843 100 85 100C76.7157 100 70 93.2843 70 85C70 84.5984 70.0158 84.2005 70.0468 83.8069L24.6207 61.5088C22.0165 63.6881 18.6614 65 15 65C6.71573 65 0 58.2843 0 50C0 41.7157 6.71573 35 15 35C19.0567 35 22.7373 36.6104 25.4374 39.2268L70.1613 17.2076C70.055 16.4871 70 15.75 70 15C70 6.71573 76.7157 0 85 0C93.2843 0 100 6.71573 100 15ZM92 15.5C92 19.6421 88.6421 23 84.5 23C80.3579 23 77 19.6421 77 15.5C77 11.3579 80.3579 8 84.5 8C88.6421 8 92 11.3579 92 15.5ZM14.5 58C18.6421 58 22 54.6421 22 50.5C22 46.3579 18.6421 43 14.5 43C10.3579 43 7 46.3579 7 50.5C7 54.6421 10.3579 58 14.5 58ZM92 85.5C92 89.6421 88.6421 93 84.5 93C80.3579 93 77 89.6421 77 85.5C77 81.3579 80.3579 78 84.5 78C88.6421 78 92 81.3579 92 85.5Z" fill="currentColor"/>
        </g>
    </symbol>

    <symbol id="settings">
        <g clip-path="url(#clip0_203_2)">
            <rect x="44" width="13" height="14" fill="currentColor"/>
            <rect x="44" y="86" width="13" height="14" fill="currentColor"/>
            <rect x="87" y="57" width="13" height="14" transform="rotate(-90 87 57)" fill="currentColor"/>
            <rect y="57" width="13" height="14" transform="rotate(-90 0 57)" fill="currentColor"/>
            <rect width="13.3114" height="15.219" transform="matrix(0.705941 -0.708271 0.705941 0.708271 7 17.4281)" fill="currentColor"/>
            <rect width="13.3114" height="15.2353" transform="matrix(0.705941 -0.708271 0.705941 0.708271 73.6418 82.0654)" fill="currentColor"/>
            <rect width="15.0066" height="13.3114" transform="matrix(0.705941 -0.708271 0.705941 0.708271 7 83.4281)" fill="currentColor"/>
            <rect width="16.1522" height="13.3114" transform="matrix(0.705941 -0.708271 0.705941 0.708271 72.9946 18.4402)" fill="currentColor"/>
            <path fill-rule="evenodd" clip-rule="evenodd" d="M50.5 91C72.8675 91 91 72.8675 91 50.5C91 28.1325 72.8675 10 50.5 10C28.1325 10 10 28.1325 10 50.5C10 72.8675 28.1325 91 50.5 91ZM51 70C62.0457 70 71 61.0457 71 50C71 38.9543 62.0457 30 51 30C39.9543 30 31 38.9543 31 50C31 61.0457 39.9543 70 51 70Z" fill="currentColor"/>
        </g>
        <defs>
            <clipPath id="clip0_203_2">
                <rect width="100" height="100" fill="currentColor"/>
            </clipPath>
        </defs>
    </symbol>

    <symbol id="home">
       <path fill-rule="evenodd" clip-rule="evenodd" d="M16.8 24.2361L28 16.2151V0H16.8V24.2361ZM7.99999 38.0282L47.2 8.45072C49.6 7.04227 50.4 7.04227 52.8 8.45072L93.6 38.0282V100H64.8V50.5H36V100H6.39999L7.99999 38.0282Z" fill="currentColor"/>
        <path d="M28 16.2151L28.8734 17.4346L29.5 16.9858V16.2151H28ZM16.8 24.2361H15.3V27.1553L17.6734 25.4556L16.8 24.2361ZM28 0H29.5V-1.5H28V0ZM16.8 0V-1.5H15.3V0H16.8ZM47.2 8.45072L46.4408 7.15704L46.3659 7.201L46.2965 7.25332L47.2 8.45072ZM7.99999 38.0282L7.09653 36.8308L6.51916 37.2664L6.50049 37.9895L7.99999 38.0282ZM52.8 8.45072L53.6804 7.23627L53.6217 7.19372L53.5592 7.15704L52.8 8.45072ZM93.6 38.0282H95.1V37.2629L94.4804 36.8137L93.6 38.0282ZM93.6 100V101.5H95.1V100H93.6ZM64.8 100H63.3V101.5H64.8V100ZM64.8 50.5H66.3V49H64.8V50.5ZM36 50.5V49H34.5V50.5H36ZM36 100V101.5H37.5V100H36ZM6.39999 100L4.90049 99.9613L4.86077 101.5H6.39999V100ZM47.2 2.4648L46.4408 1.17112L46.382 1.20561L46.3266 1.24528L47.2 2.4648ZM53.6 2.4648L54.4832 1.25241L54.4232 1.20869L54.3592 1.17112L53.6 2.4648ZM27.1266 14.9956L15.9266 23.0166L17.6734 25.4556L28.8734 17.4346L27.1266 14.9956ZM26.5 0V16.2151H29.5V0H26.5ZM16.8 1.5H28V-1.5H16.8V1.5ZM18.3 24.2361V0H15.3V24.2361H18.3ZM46.2965 7.25332L7.09653 36.8308L8.90346 39.2256L48.1035 9.64811L46.2965 7.25332ZM53.5592 7.15704C52.3589 6.45266 51.2454 5.89438 50 5.89438C48.7546 5.89438 47.641 6.45266 46.4408 7.15704L47.9592 9.7444C49.1589 9.04032 49.6454 8.89438 50 8.89438C50.3546 8.89438 50.841 9.04032 52.0408 9.7444L53.5592 7.15704ZM94.4804 36.8137L53.6804 7.23627L51.9196 9.66517L92.7196 39.2426L94.4804 36.8137ZM95.1 100V38.0282H92.1V100H95.1ZM64.8 101.5H93.6V98.5H64.8V101.5ZM63.3 50.5V100H66.3V50.5H63.3ZM36 52H64.8V49H36V52ZM37.5 100V50.5H34.5V100H37.5ZM6.39999 101.5H36V98.5H6.39999V101.5ZM6.50049 37.9895L4.90049 99.9613L7.89949 100.039L9.49949 38.0669L6.50049 37.9895ZM47.9592 3.75848C49.0441 3.12177 49.7746 2.90845 50.4 2.90845C51.0254 2.90845 51.7559 3.12178 52.8408 3.75848L54.3592 1.17112C53.0441 0.399358 51.7746 -0.0915487 50.4 -0.0915492C49.0254 -0.0915497 47.7559 0.399357 46.4408 1.17112L47.9592 3.75848ZM52.7168 3.67719L99.1168 37.48L100.883 35.0552L54.4832 1.25241L52.7168 3.67719ZM0.873371 37.4871L17.6734 25.4556L15.9266 23.0166L-0.873371 35.0481L0.873371 37.4871ZM28.8734 17.4346L48.0734 3.68431L46.3266 1.24528L27.1266 14.9956L28.8734 17.4346Z" fill="currentColor"/>
    </symbol>

    <symbol id="close">
        <path fill-rule="evenodd" clip-rule="evenodd" d="M93.4438 6.07187C91.4911 4.11927 88.3253 4.11927 86.3726 6.07187L49.952 42.4918L13.5314 6.07188C11.5788 4.11928 8.41293 4.11928 6.46029 6.07188L5.07012 7.46202C3.11748 9.41463 3.11748 12.5804 5.07012 14.533L41.4907 50.9529L5.07012 87.3728C3.11748 89.3254 3.11748 92.4912 5.07012 94.4438L6.46029 95.834C8.41293 97.7866 11.5788 97.7866 13.5314 95.834L49.952 59.4141L86.3726 95.834C88.3253 97.7866 91.4911 97.7866 93.4438 95.834L94.834 94.4438C96.7866 92.4912 96.7866 89.3254 94.8339 87.3728L58.4133 50.9529L94.834 14.533C96.7866 12.5804 96.7866 9.41462 94.8339 7.46202L93.4438 6.07187Z" fill="currentColor"/>
    </symbol>
    
</svg>
