<?xml version="1.0" encoding="UTF-8" ?>
<!DOCTYPE svg PUBLIC "-//W3C//DTD SVG 1.1//EN" "http://www.w3.org/Graphics/SVG/1.1/DTD/svg11.dtd">
<svg xmlns="http://www.w3.org/2000/svg" xmlns:xlink="http://www.w3.org/1999/xlink">
    
    <symbol id="share">
        <g clip-path="url(#clip0_201_2)">
            <path fill-rule="evenodd" clip-rule="evenodd" d="M100 15C100 23.2843 93.2843 30 85 30C81.0858 30 77.5217 28.5007 74.8507 26.0451L29.8908 48.1806C29.9629 48.777 30 49.3841 30 50C30 50.9831 29.9054 51.9441 29.7249 52.8745L74.1248 74.6689C76.8577 71.793 80.7195 70 85 70C93.2843 70 100 76.7157 100 85C100 93.2843 93.2843 100 85 100C76.7157 100 70 93.2843 70 85C70 84.5984 70.0158 84.2005 70.0468 83.8069L24.6207 61.5088C22.0165 63.6881 18.6614 65 15 65C6.71573 65 0 58.2843 0 50C0 41.7157 6.71573 35 15 35C19.0567 35 22.7373 36.6104 25.4374 39.2268L70.1613 17.2076C70.055 16.4871 70 15.75 70 15C70 6.71573 76.7157 0 85 0C93.2843 0 100 6.71573 100 15ZM92 15.5C92 19.6421 88.6421 23 84.5 23C80.3579 23 77 19.6421 77 15.5C77 11.3579 80.3579 8 84.5 8C88.6421 8 92 11.3579 92 15.5ZM14.5 58C18.6421 58 22 54.6421 22 50.5C22 46.3579 18.6421 43 14.5 43C10.3579 43 7 46.3579 7 50.5C7 54.6421 10.3579 58 14.5 58ZM92 85.5C92 89.6421 88.6421 93 84.5 93C80.3579 93 77 89.6421 77 85.5C77 81.3579 80.3579 78 84.5 78C88.6421 78 92 81.3579 92 85.5Z" fill="currentColor"/>
        </g>
    </symbol>

    <symbol id="share">
        <path d="M402 168c-2.93 40.67-33.1 72-66 72s-63.12-31.32-66-72c-3-42.31 26.37-72 66-72s69 30.46 66 72z" fill="none" stroke="currentColor" stroke-linecap="round" stroke-linejoin="round" stroke-width="32"/>
        <path d="M336 304c-65.17 0-127.84 32.37-143.54 95.41-2.08 8.34 3.15 16.59 11.72 16.59h263.65c8.57 0 13.77-8.25 11.72-16.59C463.85 335.36 401.18 304 336 304z" fill="none" stroke="currentColor" stroke-miterlimit="10" stroke-width="32"/>
        <path d="M200 185.94c-2.34 32.48-26.72 58.06-53 58.06s-50.7-25.57-53-58.06C91.61 152.15 115.34 128 147 128s55.39 24.77 53 57.94z" fill="none" stroke="currentColor" stroke-linecap="round" stroke-linejoin="round" stroke-width="32"/>
        <path d="M206 306c-18.05-8.27-37.93-11.45-59-11.45-52 0-102.1 25.85-114.65 76.2-1.65 6.66 2.53 13.25 9.37 13.25H154" fill="none" stroke="currentColor" stroke-linecap="round" stroke-miterlimit="10" stroke-width="32"/>
    </symbol>

    <symbol id="settings">
        <path fill="transparent" d="M41.5 97H60C60 84 69.5 81 79.5 88L89 78.5C80.5 70.5 82.5 61 99 59V41.5C83 41.5 82 29 89.5 21.5L80 12C69 17.5 59 16 59 3L40.5 3C40.5 16 31 19 21 12L11.5 21.5C21 29 17 43.5 1.99999 41.5V59C15.5 61 20.5 68 11 78.5L20.5 88C31.5 82.5 41.5 84 41.5 97Z" stroke="currentColor" stroke-width="5"/>
        <circle cx="50" cy="50" r="12.5" stroke="currentColor" stroke-width="5"/>
    </symbol>

    <symbol id="home">
        <path d="M28.44 18.2013L29.8529 20.2637L30.94 19.519V18.2013H28.44ZM17.464 25.7208H14.964V30.4639L18.8769 27.7832L17.464 25.7208ZM28.44 3H30.94V0.5H28.44V3ZM17.464 3V0.5H14.964V3H17.464ZM47.1743 14.9582L46.0079 12.7469L45.8856 12.8115L45.7711 12.8891L47.1743 14.9582ZM7.61468 41.7871L6.21147 39.718L5.15245 40.4362L5.11571 41.7153L7.61468 41.7871ZM52.8257 14.9582L54.1905 12.8636L54.094 12.8007L53.9921 12.7469L52.8257 14.9582ZM94 41.7871H96.5V40.4322L95.3648 39.6925L94 41.7871ZM94 98V100.5H96.5V98H94ZM64.9358 98H62.4358V100.5H64.9358V98ZM64.9358 53.0999H67.4358V50.5999H64.9358V53.0999ZM35.8716 53.0999V50.5999H33.3716V53.0999H35.8716ZM35.8716 98V100.5H38.3716V98H35.8716ZM6 98L3.50103 97.9282L3.42716 100.5H6V98ZM47.256 5.31069L46.0322 3.13072L45.935 3.18527L45.8431 3.24826L47.256 5.31069ZM53.528 5.31069L54.9574 3.25962L54.8577 3.19018L54.7518 3.13072L53.528 5.31069ZM27.0271 16.1388L16.0511 23.6583L18.8769 27.7832L29.8529 20.2637L27.0271 16.1388ZM25.94 3V18.2013H30.94V3H25.94ZM17.464 5.5H28.44V0.5H17.464V5.5ZM19.964 25.7208V3H14.964V25.7208H19.964ZM45.7711 12.8891L6.21147 39.718L9.01789 43.8561L48.5775 17.0272L45.7711 12.8891ZM53.9921 12.7469C52.7668 12.1007 51.478 11.5 50 11.5C48.522 11.5 47.2332 12.1007 46.0079 12.7469L48.3407 17.1694C49.5375 16.5381 49.8633 16.5 50 16.5C50.1367 16.5 50.4625 16.5381 51.6593 17.1694L53.9921 12.7469ZM95.3648 39.6925L54.1905 12.8636L51.4609 17.0528L92.6352 43.8817L95.3648 39.6925ZM96.5 98V41.7871H91.5V98H96.5ZM64.9358 100.5H94V95.5H64.9358V100.5ZM62.4358 53.0999V98H67.4358V53.0999H62.4358ZM35.8716 55.5999H64.9358V50.5999H35.8716V55.5999ZM38.3716 98V53.0999H33.3716V98H38.3716ZM6 100.5H35.8716V95.5H6V100.5ZM5.11571 41.7153L3.50103 97.9282L8.49897 98.0718L10.1136 41.8589L5.11571 41.7153ZM48.4798 7.49066C49.4633 6.93852 50.0092 6.82039 50.392 6.82039C50.7748 6.82039 51.3207 6.93852 52.3042 7.49066L54.7518 3.13072C53.3833 2.36245 51.9692 1.82039 50.392 1.82039C48.8148 1.82039 47.4007 2.36245 46.0322 3.13072L48.4798 7.49066ZM52.0986 7.36175L97.5706 39.0511L100.429 34.9489L54.9574 3.25962L52.0986 7.36175ZM2.41294 39.0624L18.8769 27.7832L16.0511 23.6583L-0.412939 34.9376L2.41294 39.0624ZM29.8529 20.2637L48.6689 7.37311L45.8431 3.24826L27.0271 16.1388L29.8529 20.2637Z" fill="currentColor"/>
    </symbol>

    <symbol id="close">
        <path fill-rule="evenodd" clip-rule="evenodd" d="M93.4438 6.07187C91.4911 4.11927 88.3253 4.11927 86.3726 6.07187L49.952 42.4918L13.5314 6.07188C11.5788 4.11928 8.41293 4.11928 6.46029 6.07188L5.07012 7.46202C3.11748 9.41463 3.11748 12.5804 5.07012 14.533L41.4907 50.9529L5.07012 87.3728C3.11748 89.3254 3.11748 92.4912 5.07012 94.4438L6.46029 95.834C8.41293 97.7866 11.5788 97.7866 13.5314 95.834L49.952 59.4141L86.3726 95.834C88.3253 97.7866 91.4911 97.7866 93.4438 95.834L94.834 94.4438C96.7866 92.4912 96.7866 89.3254 94.8339 87.3728L58.4133 50.9529L94.834 14.533C96.7866 12.5804 96.7866 9.41462 94.8339 7.46202L93.4438 6.07187Z" fill="currentColor"/>
    </symbol>

    <symbol id="users">
        <path fill-rule="evenodd" clip-rule="evenodd" d="M23.3596 44.1871C26.7894 44.1871 29.9155 42.6594 32.2714 40.1518C32.2568 39.8246 32.2494 39.4952 32.2494 39.1638C32.2494 34.2796 33.8564 29.8184 36.507 26.4146C35.6047 18.834 30.0622 13 23.3596 13C16.0275 13 10.0836 19.9815 10.0836 28.5936C10.0836 37.2056 16.0275 44.1871 23.3596 44.1871ZM23.5071 47.1399C26.9422 47.1399 30.1161 45.7927 32.6852 43.5129C32.883 44.4829 33.1456 45.425 33.4675 46.3332C26.1396 50.6311 21.3081 57.9922 21.3081 66.3514C21.3081 67.8568 21.4648 69.3297 21.7645 70.7583C10.7014 69.9819 2 61.8779 2 51.9952C2 46.116 5.07951 40.8663 9.90375 37.4143C12.5341 43.2096 17.6397 47.1399 23.5071 47.1399Z" fill="currentColor"/>
        <path fill-rule="evenodd" clip-rule="evenodd" d="M76.3453 44.1871C83.6774 44.1871 89.6213 37.2056 89.6213 28.5936C89.6213 19.9815 83.6774 13 76.3453 13C69.4865 13 63.8424 19.1093 63.1424 26.9477C65.5537 30.278 66.9997 34.5306 66.9997 39.1638C66.9997 39.3305 66.9978 39.4967 66.9941 39.6624C69.3936 42.4592 72.6977 44.1871 76.3453 44.1871ZM75.5447 70.8012C75.859 70.8131 76.1751 70.8192 76.4928 70.8192C88.3709 70.8192 97.9999 62.3914 97.9999 51.9952C97.9999 46.116 94.9204 40.8662 90.0962 37.4143C87.4658 43.2096 82.3602 47.1399 76.4928 47.1399C72.7676 47.1399 69.3495 45.5556 66.6769 42.9156C66.4082 44.4558 65.9772 45.9304 65.4048 47.3158C71.854 51.704 76.0101 58.5985 76.0101 66.3514C76.0101 67.8718 75.8503 69.3592 75.5447 70.8012Z" fill="currentColor"/>
        <path fill-rule="evenodd" clip-rule="evenodd" d="M49.2459 57.2325C57.5106 57.2325 64.2104 49.317 64.2104 39.5527C64.2104 29.7884 57.5106 21.873 49.2459 21.873C40.9813 21.873 34.2814 29.7884 34.2814 39.5527C34.2814 49.317 40.9813 57.2325 49.2459 57.2325ZM25.1697 66.0852C25.1697 59.4194 28.6409 53.4673 34.0787 49.5535C37.0436 56.1241 42.7986 60.5803 49.4122 60.5803C56.0258 60.5803 61.7808 56.1242 64.7456 49.5536C70.1834 53.4673 73.6546 59.4194 73.6546 66.0852C73.6546 77.8722 62.8009 87.4275 49.4122 87.4275C36.0234 87.4275 25.1697 77.8722 25.1697 66.0852Z" fill="currentColor"/>
    </symbol>
    
</svg>
