<?xml version="1.0" encoding="UTF-8" ?>
<!DOCTYPE svg PUBLIC "-//W3C//DTD SVG 1.1//EN" "http://www.w3.org/Graphics/SVG/1.1/DTD/svg11.dtd">
<svg xmlns="http://www.w3.org/2000/svg" xmlns:xlink="http://www.w3.org/1999/xlink">
    
    <symbol id="share">
        <g clip-path="url(#clip0_201_2)">
            <path fill-rule="evenodd" clip-rule="evenodd" d="M100 15C100 23.2843 93.2843 30 85 30C81.0858 30 77.5217 28.5007 74.8507 26.0451L29.8908 48.1806C29.9629 48.777 30 49.3841 30 50C30 50.9831 29.9054 51.9441 29.7249 52.8745L74.1248 74.6689C76.8577 71.793 80.7195 70 85 70C93.2843 70 100 76.7157 100 85C100 93.2843 93.2843 100 85 100C76.7157 100 70 93.2843 70 85C70 84.5984 70.0158 84.2005 70.0468 83.8069L24.6207 61.5088C22.0165 63.6881 18.6614 65 15 65C6.71573 65 0 58.2843 0 50C0 41.7157 6.71573 35 15 35C19.0567 35 22.7373 36.6104 25.4374 39.2268L70.1613 17.2076C70.055 16.4871 70 15.75 70 15C70 6.71573 76.7157 0 85 0C93.2843 0 100 6.71573 100 15ZM92 15.5C92 19.6421 88.6421 23 84.5 23C80.3579 23 77 19.6421 77 15.5C77 11.3579 80.3579 8 84.5 8C88.6421 8 92 11.3579 92 15.5ZM14.5 58C18.6421 58 22 54.6421 22 50.5C22 46.3579 18.6421 43 14.5 43C10.3579 43 7 46.3579 7 50.5C7 54.6421 10.3579 58 14.5 58ZM92 85.5C92 89.6421 88.6421 93 84.5 93C80.3579 93 77 89.6421 77 85.5C77 81.3579 80.3579 78 84.5 78C88.6421 78 92 81.3579 92 85.5Z" fill="#D9D9D9"/>
        </g>
        <defs>
            <clipPath id="clip0_201_2">
                <rect width="100" height="100" fill="white"/>
            </clipPath>
        </defs>
    </symbol>

    <symbol id="settings">
        <g clip-path="url(#clip0_203_2)">
            <rect x="44" width="13" height="14" fill="#D9D9D9"/>
            <rect x="44" y="86" width="13" height="14" fill="#D9D9D9"/>
            <rect x="87" y="57" width="13" height="14" transform="rotate(-90 87 57)" fill="#D9D9D9"/>
            <rect y="57" width="13" height="14" transform="rotate(-90 0 57)" fill="#D9D9D9"/>
            <rect width="13.3114" height="15.219" transform="matrix(0.705941 -0.708271 0.705941 0.708271 7 17.4281)" fill="#D9D9D9"/>
            <rect width="13.3114" height="15.2353" transform="matrix(0.705941 -0.708271 0.705941 0.708271 73.6418 82.0654)" fill="#D9D9D9"/>
            <rect width="15.0066" height="13.3114" transform="matrix(0.705941 -0.708271 0.705941 0.708271 7 83.4281)" fill="#D9D9D9"/>
            <rect width="16.1522" height="13.3114" transform="matrix(0.705941 -0.708271 0.705941 0.708271 72.9946 18.4402)" fill="#D9D9D9"/>
            <path fill-rule="evenodd" clip-rule="evenodd" d="M50.5 91C72.8675 91 91 72.8675 91 50.5C91 28.1325 72.8675 10 50.5 10C28.1325 10 10 28.1325 10 50.5C10 72.8675 28.1325 91 50.5 91ZM51 70C62.0457 70 71 61.0457 71 50C71 38.9543 62.0457 30 51 30C39.9543 30 31 38.9543 31 50C31 61.0457 39.9543 70 51 70Z" fill="#D9D9D9"/>
        </g>
        <defs>
            <clipPath id="clip0_203_2">
                <rect width="100" height="100" fill="white"/>
            </clipPath>
        </defs>
    </symbol>

</svg>
